<?xml version="1.0" encoding="UTF-8"?>
<!DOCTYPE svg PUBLIC "-//W3C//DTD SVG 1.1//EN" "http://www.w3.org/Graphics/SVG/1.1/DTD/svg11.dtd">
<svg xmlns="http://www.w3.org/2000/svg" version="1.1" width="512px" height="512px" style="shape-rendering:geometricPrecision; text-rendering:geometricPrecision; image-rendering:optimizeQuality; fill-rule:evenodd; clip-rule:evenodd" xmlns:xlink="http://www.w3.org/1999/xlink">
    <g>
        <path style="opacity:0.997" fill="#febc00" d="M 511.5,105.5 C 511.5,124.5 511.5,143.5 511.5,162.5C 472.833,191.5 434.167,220.5 395.5,249.5C 395.832,198.997 395.499,148.664 394.5,98.5C 406.252,89.1111 418.252,79.9444 430.5,71C 452.835,59.1658 474.168,60.8325 494.5,76C 503.012,84.3095 508.678,94.1428 511.5,105.5 Z"/>
    </g>
    <g>
        <path style="opacity:0.996" fill="#e41c19" d="M 116.5,98.5 C 115.501,148.331 115.168,198.331 115.5,248.5C 76.5699,220.243 37.9032,191.577 -0.5,162.5C -0.5,143.5 -0.5,124.5 -0.5,105.5C 9.89353,72.6238 32.2269,59.1238 66.5,65C 71.3988,66.4491 76.0654,68.4491 80.5,71C 92.7485,79.9444 104.748,89.1111 116.5,98.5 Z"/>
    </g>
    <g>
        <path style="opacity:0.995" fill="#fe4130" d="M 116.5,98.5 C 163.06,133.036 209.56,167.702 256,202.5C 302.044,167.617 348.21,132.95 394.5,98.5C 395.499,148.664 395.832,198.997 395.5,249.5C 395.167,250.167 394.833,250.833 394.5,251.5C 348.334,286.081 302.001,320.414 255.5,354.5C 208.999,320.414 162.666,286.081 116.5,251.5C 116.443,250.391 116.11,249.391 115.5,248.5C 115.168,198.331 115.501,148.331 116.5,98.5 Z"/>
    </g>
    <g>
        <path style="opacity:0.995" fill="#0184f6" d="M -0.5,162.5 C 37.9032,191.577 76.5699,220.243 115.5,248.5C 116.11,249.391 116.443,250.391 116.5,251.5C 116.5,317.167 116.5,382.833 116.5,448.5C 86.1374,448.935 55.8041,448.435 25.5,447C 12.3175,442.983 3.65084,434.483 -0.5,421.5C -0.5,335.167 -0.5,248.833 -0.5,162.5 Z"/>
    </g>
    <g>
        <path style="opacity:1" fill="#00a94a" d="M 511.5,162.5 C 511.5,248.833 511.5,335.167 511.5,421.5C 507.349,434.483 498.682,442.983 485.5,447C 455.196,448.435 424.863,448.935 394.5,448.5C 394.5,382.833 394.5,317.167 394.5,251.5C 394.833,250.833 395.167,250.167 395.5,249.5C 434.167,220.5 472.833,191.5 511.5,162.5 Z"/>
    </g>
</svg>
