<?xml version="1.0" standalone="no"?>
<svg version="1.0" xmlns="http://www.w3.org/2000/svg" width="512.000000pt" height="512.000000pt" viewBox="0 0 512.000000 512.000000" preserveAspectRatio="xMidYMid meet">
    <g transform="translate(0.000000,512.000000) scale(0.100000,-0.100000)" fill="#FFF" stroke="none">
        <path d="M1036 5109 c-446 -58 -825 -367 -969 -789 -66 -192 -62 -88 -62 -1760 0 -1430 1 -1520 18 -1600 80 -371 307 -669 632 -830 114 -56 185 -81
        305 -107 80 -17 170 -18 1600 -18 1430 0 1520 1 1600 18 371 80 669 307 830 632 56 114 81 185 107 305 16 77 18 141 18 670 0 582 0 585 -22 626 -12 22
        -40 57 -62 77 -105 95 -279 67 -356 -57 l-30 -49 -6 -581 c-6 -644 -5 -628 -75 -772 -88 -179 -254 -314 -454 -371 -62 -17 -141 -18 -1550 -18 -1412 0
        -1488 1 -1550 18 -250 71 -436 257 -507 507 -17 62 -18 141 -18 1550 0 1405 1 1489 18 1550 56 201 191 366 371 453 146 72 128 70 772 76 l581 6 49 30 c124
        77 152 251 57 356 -20 22 -55 50 -77 62 -41 22 -46 22 -596 23 -305 1 -586 -2 -624 -7z"/>
        <path d="M3301 5106 c-48 -17 -108 -71 -133 -119 -47 -89 -23 -218 53 -281 75 -64 48 -61 584 -66 l490 -5 -977 -980 c-895 -899 -977 -984 -988 -1025 -50
        -189 111 -350 300 -300 41 11 124 91 1028 993 l982 982 0 -485 0 -485 24 -51 c47 -100 159 -158 263 -134 66 14 130 62 163 120 l25 45 0 815 c0 776 -1 817
        -19 850 -26 49 -64 88 -111 113 -40 22 -41 22 -845 24 -616 1 -813 -1 -839 -11z"/>
    </g>
</svg>
